<mxfile host="app.diagrams.net" agent="Mozilla/5.0 (Windows NT 10.0; Win64; x64) AppleWebKit/537.36 (KHTML, like Gecko) Chrome/134.0.0.0 Safari/537.36" version="26.1.1">
  <diagram name="Page-1" id="MLrWZv1XILcuEfI6IXm7">
    <mxGraphModel dx="1313" dy="706" grid="1" gridSize="10" guides="1" tooltips="1" connect="1" arrows="1" fold="1" page="1" pageScale="1" pageWidth="827" pageHeight="1169" math="0" shadow="0">
      <root>
        <mxCell id="0" />
        <mxCell id="1" parent="0" />
        <mxCell id="jvlNy7uuzLirawUVMV1M-77" value="" style="html=1;shape=mxgraph.sysml.package;labelX=54.29;whiteSpace=wrap;align=center;" parent="1" vertex="1">
          <mxGeometry y="280" width="1420" height="980" as="geometry" />
        </mxCell>
        <mxCell id="jvlNy7uuzLirawUVMV1M-78" value="&lt;font style=&quot;font-size: 15px;&quot;&gt;alt&lt;/font&gt;" style="html=1;align=left;verticalAlign=top;labelPosition=left;verticalLabelPosition=top;labelBackgroundColor=none;spacingLeft=5;spacingTop=-2;fontStyle=1;" parent="jvlNy7uuzLirawUVMV1M-77" connectable="0" vertex="1">
          <mxGeometry as="geometry" />
        </mxCell>
        <mxCell id="jvlNy7uuzLirawUVMV1M-81" value="" style="html=1;shape=mxgraph.sysml.package;labelX=54.29;whiteSpace=wrap;align=center;" parent="jvlNy7uuzLirawUVMV1M-77" vertex="1">
          <mxGeometry x="10.29" y="337.55" width="1299.71" height="532.45" as="geometry" />
        </mxCell>
        <mxCell id="jvlNy7uuzLirawUVMV1M-82" value="&lt;font style=&quot;font-size: 15px;&quot;&gt;alt&lt;/font&gt;" style="html=1;align=left;verticalAlign=top;labelPosition=left;verticalLabelPosition=top;labelBackgroundColor=none;spacingLeft=5;spacingTop=-2;fontStyle=1;" parent="jvlNy7uuzLirawUVMV1M-81" connectable="0" vertex="1">
          <mxGeometry as="geometry" />
        </mxCell>
        <mxCell id="jvlNy7uuzLirawUVMV1M-44" value="&lt;font style=&quot;font-size: 17px;&quot;&gt;LS n&#39;existe pas&lt;/font&gt;" style="edgeStyle=none;html=1;endArrow=open;endSize=12;dashed=1;verticalAlign=bottom;rounded=0;" parent="jvlNy7uuzLirawUVMV1M-81" edge="1">
          <mxGeometry width="160" relative="1" as="geometry">
            <mxPoint x="915.0133410914589" y="50.89871722878391" as="sourcePoint" />
            <mxPoint x="357.4825627275128" y="50.89871722878391" as="targetPoint" />
          </mxGeometry>
        </mxCell>
        <mxCell id="jvlNy7uuzLirawUVMV1M-58" value="" style="shape=rect;fillColor=#eeeeee;html=1;" parent="jvlNy7uuzLirawUVMV1M-81" vertex="1">
          <mxGeometry x="99.71000000000001" y="172.45000000000005" width="30.65" height="120" as="geometry" />
        </mxCell>
        <mxCell id="jvlNy7uuzLirawUVMV1M-43" value="" style="shape=rect;fillColor=#eeeeee;html=1;" parent="jvlNy7uuzLirawUVMV1M-81" vertex="1">
          <mxGeometry x="918.6606458269237" y="2.0002478410288056" width="30.4604605291532" height="57.04821428571429" as="geometry" />
        </mxCell>
        <mxCell id="jvlNy7uuzLirawUVMV1M-85" value="" style="endArrow=none;dashed=1;html=1;dashPattern=1 3;strokeWidth=2;rounded=0;exitX=0.001;exitY=0.121;exitDx=0;exitDy=0;exitPerimeter=0;" parent="jvlNy7uuzLirawUVMV1M-81" edge="1">
          <mxGeometry width="50" height="50" relative="1" as="geometry">
            <mxPoint y="114.45000000000005" as="sourcePoint" />
            <mxPoint x="1299.71" y="112.45000000000005" as="targetPoint" />
          </mxGeometry>
        </mxCell>
        <mxCell id="jvlNy7uuzLirawUVMV1M-2" value="" style="edgeStyle=none;html=1;dashed=1;endArrow=none;align=center;verticalAlign=bottom;exitX=0.5;exitY=1;rounded=0;" parent="1" source="jvlNy7uuzLirawUVMV1M-45" edge="1">
          <mxGeometry x="1" relative="1" as="geometry">
            <mxPoint x="120" y="1150" as="targetPoint" />
            <mxPoint x="124.5" y="130" as="sourcePoint" />
          </mxGeometry>
        </mxCell>
        <mxCell id="jvlNy7uuzLirawUVMV1M-3" value="&lt;font style=&quot;font-size: 15px;&quot;&gt;Corpoate&lt;/font&gt;" style="shape=umlActor;verticalLabelPosition=bottom;verticalAlign=top;html=1;outlineConnect=0;" parent="1" vertex="1">
          <mxGeometry x="110" y="40" width="30" height="60" as="geometry" />
        </mxCell>
        <mxCell id="jvlNy7uuzLirawUVMV1M-4" value="&lt;font style=&quot;font-size: 18px;&quot;&gt;Interface&lt;/font&gt;" style="shape=rect;html=1;whiteSpace=wrap;align=center;" parent="1" vertex="1">
          <mxGeometry x="290" y="40" width="130" height="50" as="geometry" />
        </mxCell>
        <mxCell id="jvlNy7uuzLirawUVMV1M-5" value="" style="edgeStyle=none;html=1;dashed=1;endArrow=none;align=center;verticalAlign=bottom;exitX=0.5;exitY=1;rounded=0;entryX=0.265;entryY=1.007;entryDx=0;entryDy=0;entryPerimeter=0;" parent="1" source="jvlNy7uuzLirawUVMV1M-51" target="jvlNy7uuzLirawUVMV1M-81" edge="1">
          <mxGeometry x="1" relative="1" as="geometry">
            <mxPoint x="350" y="1150" as="targetPoint" />
          </mxGeometry>
        </mxCell>
        <mxCell id="jvlNy7uuzLirawUVMV1M-6" value="&lt;font style=&quot;font-size: 18px;&quot;&gt;Liste Client&lt;/font&gt;" style="shape=rect;html=1;whiteSpace=wrap;align=center;" parent="1" vertex="1">
          <mxGeometry x="600" y="40" width="140" height="50" as="geometry" />
        </mxCell>
        <mxCell id="jvlNy7uuzLirawUVMV1M-7" value="" style="edgeStyle=none;html=1;dashed=1;endArrow=none;align=center;verticalAlign=bottom;exitX=0.5;exitY=1;rounded=0;entryX=0.509;entryY=1.009;entryDx=0;entryDy=0;entryPerimeter=0;" parent="1" source="jvlNy7uuzLirawUVMV1M-6" target="jvlNy7uuzLirawUVMV1M-81" edge="1">
          <mxGeometry x="1" relative="1" as="geometry">
            <mxPoint x="670" y="1121.88232421875" as="targetPoint" />
          </mxGeometry>
        </mxCell>
        <mxCell id="E7JssRZU6UM2DfpvhrPb-1" value="Text" style="edgeLabel;html=1;align=center;verticalAlign=middle;resizable=0;points=[];" vertex="1" connectable="0" parent="jvlNy7uuzLirawUVMV1M-7">
          <mxGeometry x="0.0622" y="5" relative="1" as="geometry">
            <mxPoint y="1" as="offset" />
          </mxGeometry>
        </mxCell>
        <mxCell id="jvlNy7uuzLirawUVMV1M-8" value="&lt;font style=&quot;font-size: 18px;&quot;&gt;Liste LS&lt;/font&gt;" style="shape=rect;html=1;whiteSpace=wrap;align=center;" parent="1" vertex="1">
          <mxGeometry x="880" y="40" width="140" height="50" as="geometry" />
        </mxCell>
        <mxCell id="jvlNy7uuzLirawUVMV1M-9" value="" style="edgeStyle=none;html=1;dashed=1;endArrow=none;align=center;verticalAlign=bottom;exitX=0.5;exitY=1;rounded=0;entryX=0.721;entryY=0.999;entryDx=0;entryDy=0;entryPerimeter=0;" parent="1" source="jvlNy7uuzLirawUVMV1M-55" target="jvlNy7uuzLirawUVMV1M-81" edge="1">
          <mxGeometry x="1" relative="1" as="geometry">
            <mxPoint x="950" y="1131.88232421875" as="targetPoint" />
          </mxGeometry>
        </mxCell>
        <mxCell id="jvlNy7uuzLirawUVMV1M-10" value="&lt;font style=&quot;font-size: 18px;&quot;&gt;athentification&lt;/font&gt;" style="html=1;shape=mxgraph.sysml.package;labelX=54.29;whiteSpace=wrap;align=center;" parent="1" vertex="1">
          <mxGeometry x="160" y="130" width="160" height="60" as="geometry" />
        </mxCell>
        <mxCell id="jvlNy7uuzLirawUVMV1M-11" value="ref" style="html=1;align=left;verticalAlign=top;labelPosition=left;verticalLabelPosition=top;labelBackgroundColor=none;spacingLeft=5;spacingTop=-2;fontStyle=1;" parent="jvlNy7uuzLirawUVMV1M-10" connectable="0" vertex="1">
          <mxGeometry as="geometry" />
        </mxCell>
        <mxCell id="jvlNy7uuzLirawUVMV1M-13" value="" style="edgeStyle=none;html=1;dashed=1;endArrow=none;align=center;verticalAlign=bottom;exitX=0.5;exitY=1;rounded=0;" parent="1" target="jvlNy7uuzLirawUVMV1M-12" edge="1">
          <mxGeometry x="1" relative="1" as="geometry">
            <mxPoint x="124" y="730" as="targetPoint" />
            <mxPoint x="124.5" y="130" as="sourcePoint" />
          </mxGeometry>
        </mxCell>
        <mxCell id="jvlNy7uuzLirawUVMV1M-12" value="" style="shape=rect;fillColor=#eeeeee;html=1;" parent="1" vertex="1">
          <mxGeometry x="109.35" y="200" width="30.65" height="70" as="geometry" />
        </mxCell>
        <mxCell id="jvlNy7uuzLirawUVMV1M-15" value="" style="edgeStyle=none;html=1;dashed=1;endArrow=none;align=center;verticalAlign=bottom;exitX=0.5;exitY=1;rounded=0;" parent="1" source="jvlNy7uuzLirawUVMV1M-4" target="jvlNy7uuzLirawUVMV1M-14" edge="1">
          <mxGeometry x="1" relative="1" as="geometry">
            <mxPoint x="355" y="722" as="targetPoint" />
            <mxPoint x="355" y="90" as="sourcePoint" />
          </mxGeometry>
        </mxCell>
        <mxCell id="jvlNy7uuzLirawUVMV1M-14" value="" style="shape=rect;fillColor=#eeeeee;html=1;" parent="1" vertex="1">
          <mxGeometry x="339.67" y="200" width="30.65" height="70" as="geometry" />
        </mxCell>
        <mxCell id="jvlNy7uuzLirawUVMV1M-16" value="&lt;font style=&quot;font-size: 17px;&quot;&gt;afficher page gestion ls&lt;/font&gt;" style="edgeStyle=none;endArrow=open;verticalAlign=bottom;endSize=12;html=1;rounded=0;exitX=0;exitY=0.25;exitDx=0;exitDy=0;" parent="1" source="jvlNy7uuzLirawUVMV1M-14" edge="1">
          <mxGeometry relative="1" as="geometry">
            <mxPoint x="140" y="217" as="targetPoint" />
            <mxPoint x="340" y="210" as="sourcePoint" />
          </mxGeometry>
        </mxCell>
        <mxCell id="jvlNy7uuzLirawUVMV1M-17" value="&lt;font style=&quot;font-size: 16px;&quot;&gt;saisir num registre&amp;nbsp;&lt;/font&gt;&lt;div&gt;&lt;font style=&quot;font-size: 16px;&quot;&gt;commerce client&lt;/font&gt;&lt;/div&gt;" style="edgeStyle=none;endArrow=open;verticalAlign=bottom;endSize=12;html=1;rounded=0;entryX=0;entryY=0.25;entryDx=0;entryDy=0;" parent="1" edge="1">
          <mxGeometry x="-0.1781" relative="1" as="geometry">
            <mxPoint x="334.68000000000006" y="260" as="targetPoint" />
            <mxPoint x="140" y="260" as="sourcePoint" />
            <mxPoint as="offset" />
          </mxGeometry>
        </mxCell>
        <mxCell id="jvlNy7uuzLirawUVMV1M-23" value="&lt;font style=&quot;font-size: 17px;&quot;&gt;Virifier si client existe&lt;/font&gt;" style="edgeStyle=none;endArrow=open;verticalAlign=bottom;endSize=12;html=1;rounded=0;entryX=0;entryY=0.25;entryDx=0;entryDy=0;exitX=0.924;exitY=0.107;exitDx=0;exitDy=0;exitPerimeter=0;" parent="1" source="jvlNy7uuzLirawUVMV1M-24" edge="1">
          <mxGeometry x="1" y="175" relative="1" as="geometry">
            <mxPoint x="675" y="310" as="targetPoint" />
            <mxPoint x="363" y="309" as="sourcePoint" />
            <mxPoint x="-55" y="-120" as="offset" />
          </mxGeometry>
        </mxCell>
        <mxCell id="jvlNy7uuzLirawUVMV1M-25" value="" style="edgeStyle=none;endArrow=open;verticalAlign=bottom;endSize=12;html=1;rounded=0;entryX=0;entryY=0.143;entryDx=0;entryDy=0;exitX=0.957;exitY=0.25;exitDx=0;exitDy=0;exitPerimeter=0;entryPerimeter=0;" parent="1" source="jvlNy7uuzLirawUVMV1M-26" target="jvlNy7uuzLirawUVMV1M-24" edge="1">
          <mxGeometry relative="1" as="geometry">
            <mxPoint x="675" y="310" as="targetPoint" />
            <mxPoint x="363" y="309" as="sourcePoint" />
          </mxGeometry>
        </mxCell>
        <mxCell id="jvlNy7uuzLirawUVMV1M-24" value="" style="shape=rect;fillColor=#eeeeee;html=1;" parent="1" vertex="1">
          <mxGeometry x="654.6700000000001" y="310" width="30.65" height="70" as="geometry" />
        </mxCell>
        <mxCell id="jvlNy7uuzLirawUVMV1M-26" value="" style="shape=rect;fillColor=#eeeeee;html=1;" parent="1" vertex="1">
          <mxGeometry x="339.67" y="300" width="30.65" height="80" as="geometry" />
        </mxCell>
        <mxCell id="jvlNy7uuzLirawUVMV1M-28" value="" style="shape=rect;fillColor=#eeeeee;html=1;" parent="1" vertex="1">
          <mxGeometry x="109.35" y="330" width="30.65" height="50" as="geometry" />
        </mxCell>
        <mxCell id="jvlNy7uuzLirawUVMV1M-30" value="&lt;font style=&quot;font-size: 17px;&quot;&gt;client&amp;nbsp; n&#39;existe pas&lt;/font&gt;" style="edgeStyle=none;endArrow=open;verticalAlign=bottom;endSize=12;html=1;rounded=0;entryX=1;entryY=0.75;entryDx=0;entryDy=0;" parent="1" target="jvlNy7uuzLirawUVMV1M-28" edge="1">
          <mxGeometry relative="1" as="geometry">
            <mxPoint x="70" y="350" as="targetPoint" />
            <mxPoint x="340" y="368" as="sourcePoint" />
          </mxGeometry>
        </mxCell>
        <mxCell id="jvlNy7uuzLirawUVMV1M-31" value="&lt;font style=&quot;font-size: 17px;&quot;&gt;Client n&#39;existe pas&lt;/font&gt;" style="edgeStyle=none;html=1;endArrow=open;endSize=12;dashed=1;verticalAlign=bottom;rounded=0;entryX=0.957;entryY=0.644;entryDx=0;entryDy=0;entryPerimeter=0;" parent="1" target="jvlNy7uuzLirawUVMV1M-26" edge="1">
          <mxGeometry width="160" relative="1" as="geometry">
            <mxPoint x="650" y="350" as="sourcePoint" />
            <mxPoint x="330" y="500" as="targetPoint" />
          </mxGeometry>
        </mxCell>
        <mxCell id="jvlNy7uuzLirawUVMV1M-33" value="&lt;font style=&quot;font-size: 15px;&quot;&gt;Virifier si client existe&lt;/font&gt;" style="edgeStyle=none;endArrow=open;verticalAlign=bottom;endSize=12;html=1;rounded=0;entryX=0;entryY=0.25;entryDx=0;entryDy=0;exitX=0.892;exitY=0.108;exitDx=0;exitDy=0;exitPerimeter=0;" parent="1" source="jvlNy7uuzLirawUVMV1M-32" target="jvlNy7uuzLirawUVMV1M-35" edge="1">
          <mxGeometry relative="1" as="geometry">
            <mxPoint x="675" y="450" as="targetPoint" />
            <mxPoint x="363" y="449" as="sourcePoint" />
          </mxGeometry>
        </mxCell>
        <mxCell id="jvlNy7uuzLirawUVMV1M-34" value="&lt;font style=&quot;font-size: 17px;&quot;&gt;Client existe&amp;nbsp;&lt;/font&gt;" style="edgeStyle=none;html=1;endArrow=open;endSize=12;dashed=1;verticalAlign=bottom;rounded=0;entryX=1;entryY=0.25;entryDx=0;entryDy=0;" parent="1" target="jvlNy7uuzLirawUVMV1M-32" edge="1">
          <mxGeometry width="160" relative="1" as="geometry">
            <mxPoint x="650" y="505" as="sourcePoint" />
            <mxPoint x="330" y="640" as="targetPoint" />
          </mxGeometry>
        </mxCell>
        <mxCell id="jvlNy7uuzLirawUVMV1M-35" value="" style="shape=rect;fillColor=#eeeeee;html=1;" parent="1" vertex="1">
          <mxGeometry x="654.6700000000001" y="450" width="30.65" height="70" as="geometry" />
        </mxCell>
        <mxCell id="jvlNy7uuzLirawUVMV1M-36" value="&lt;div style=&quot;text-align: center;&quot;&gt;&lt;br&gt;&lt;/div&gt;" style="text;whiteSpace=wrap;html=1;" parent="1" vertex="1">
          <mxGeometry x="440" y="430" width="170" height="40" as="geometry" />
        </mxCell>
        <mxCell id="jvlNy7uuzLirawUVMV1M-38" value="" style="edgeStyle=none;html=1;dashed=1;endArrow=none;align=center;verticalAlign=bottom;exitX=0.5;exitY=1;rounded=0;" parent="1" source="jvlNy7uuzLirawUVMV1M-28" target="jvlNy7uuzLirawUVMV1M-37" edge="1">
          <mxGeometry x="1" relative="1" as="geometry">
            <mxPoint x="124" y="730" as="targetPoint" />
            <mxPoint x="125" y="380" as="sourcePoint" />
          </mxGeometry>
        </mxCell>
        <mxCell id="jvlNy7uuzLirawUVMV1M-37" value="" style="shape=rect;fillColor=#eeeeee;html=1;" parent="1" vertex="1">
          <mxGeometry x="109.35" y="500" width="30.65" height="110" as="geometry" />
        </mxCell>
        <mxCell id="jvlNy7uuzLirawUVMV1M-39" value="&lt;font style=&quot;font-size: 17px;&quot;&gt;Demmande de siasir&lt;/font&gt;&lt;div&gt;&lt;font style=&quot;font-size: 17px;&quot;&gt;les info de la modification de&amp;nbsp;&lt;/font&gt;&lt;/div&gt;&lt;div&gt;&lt;font style=&quot;font-size: 17px;&quot;&gt;LS&lt;/font&gt;&lt;/div&gt;" style="edgeStyle=none;endArrow=open;verticalAlign=bottom;endSize=12;html=1;rounded=0;entryX=1;entryY=0.75;entryDx=0;entryDy=0;" parent="1" edge="1">
          <mxGeometry relative="1" as="geometry">
            <mxPoint x="140" y="534.38" as="targetPoint" />
            <mxPoint x="340" y="534.38" as="sourcePoint" />
          </mxGeometry>
        </mxCell>
        <mxCell id="jvlNy7uuzLirawUVMV1M-40" value="&lt;font style=&quot;font-size: 17px;&quot;&gt;Saisir les info&lt;/font&gt;" style="edgeStyle=none;html=1;endArrow=open;endSize=12;dashed=1;verticalAlign=bottom;rounded=0;entryX=0.037;entryY=0.538;entryDx=0;entryDy=0;exitX=1.098;exitY=0.687;exitDx=0;exitDy=0;exitPerimeter=0;entryPerimeter=0;" parent="1" source="jvlNy7uuzLirawUVMV1M-37" target="jvlNy7uuzLirawUVMV1M-32" edge="1">
          <mxGeometry width="160" relative="1" as="geometry">
            <mxPoint x="414" y="640" as="sourcePoint" />
            <mxPoint x="133" y="642" as="targetPoint" />
          </mxGeometry>
        </mxCell>
        <mxCell id="jvlNy7uuzLirawUVMV1M-42" value="&lt;font style=&quot;font-size: 17px;&quot;&gt;Virifier si LS existe&lt;/font&gt;" style="edgeStyle=none;endArrow=open;verticalAlign=bottom;endSize=12;html=1;rounded=0;entryX=0.011;entryY=0.393;entryDx=0;entryDy=0;exitX=1;exitY=0.798;exitDx=0;exitDy=0;exitPerimeter=0;entryPerimeter=0;" parent="1" source="jvlNy7uuzLirawUVMV1M-32" target="jvlNy7uuzLirawUVMV1M-43" edge="1">
          <mxGeometry relative="1" as="geometry">
            <mxPoint x="656.32" y="610" as="targetPoint" />
            <mxPoint x="370.32" y="610" as="sourcePoint" />
          </mxGeometry>
        </mxCell>
        <mxCell id="jvlNy7uuzLirawUVMV1M-46" value="" style="edgeStyle=none;html=1;dashed=1;endArrow=none;align=center;verticalAlign=bottom;exitX=0.5;exitY=1;rounded=0;" parent="1" source="jvlNy7uuzLirawUVMV1M-37" target="jvlNy7uuzLirawUVMV1M-45" edge="1">
          <mxGeometry x="1" relative="1" as="geometry">
            <mxPoint x="124" y="730" as="targetPoint" />
            <mxPoint x="125" y="620" as="sourcePoint" />
          </mxGeometry>
        </mxCell>
        <mxCell id="jvlNy7uuzLirawUVMV1M-45" value="" style="shape=rect;fillColor=#eeeeee;html=1;" parent="1" vertex="1">
          <mxGeometry x="109.35" y="650" width="30.65" height="50" as="geometry" />
        </mxCell>
        <mxCell id="jvlNy7uuzLirawUVMV1M-47" value="&lt;font style=&quot;font-size: 17px;&quot;&gt;Afficher un message&lt;/font&gt;&lt;div&gt;&lt;font style=&quot;font-size: 17px;&quot;&gt;de erour au corporate&lt;/font&gt;&lt;/div&gt;" style="edgeStyle=none;endArrow=open;verticalAlign=bottom;endSize=12;html=1;rounded=0;entryX=1;entryY=0.75;entryDx=0;entryDy=0;" parent="1" edge="1">
          <mxGeometry relative="1" as="geometry">
            <mxPoint x="140" y="680" as="targetPoint" />
            <mxPoint x="340" y="680" as="sourcePoint" />
          </mxGeometry>
        </mxCell>
        <mxCell id="jvlNy7uuzLirawUVMV1M-52" value="" style="edgeStyle=none;html=1;dashed=1;endArrow=none;align=center;verticalAlign=bottom;exitX=0.5;exitY=1;rounded=0;" parent="1" source="jvlNy7uuzLirawUVMV1M-14" target="jvlNy7uuzLirawUVMV1M-51" edge="1">
          <mxGeometry x="1" relative="1" as="geometry">
            <mxPoint x="350" y="1120" as="targetPoint" />
            <mxPoint x="355" y="270" as="sourcePoint" />
          </mxGeometry>
        </mxCell>
        <mxCell id="jvlNy7uuzLirawUVMV1M-51" value="" style="shape=rect;fillColor=#eeeeee;html=1;" parent="1" vertex="1">
          <mxGeometry x="339.67" y="760" width="30.65" height="340" as="geometry" />
        </mxCell>
        <mxCell id="jvlNy7uuzLirawUVMV1M-32" value="" style="shape=rect;fillColor=#eeeeee;html=1;" parent="1" vertex="1">
          <mxGeometry x="339.67" y="440" width="30.65" height="260" as="geometry" />
        </mxCell>
        <mxCell id="jvlNy7uuzLirawUVMV1M-53" value="&lt;font style=&quot;font-size: 16px;&quot;&gt;Virifier si LS existe&lt;/font&gt;" style="edgeStyle=none;endArrow=open;verticalAlign=bottom;endSize=12;html=1;rounded=0;entryX=0.011;entryY=0.393;entryDx=0;entryDy=0;exitX=0.957;exitY=0.25;exitDx=0;exitDy=0;exitPerimeter=0;entryPerimeter=0;" parent="1" edge="1">
          <mxGeometry relative="1" as="geometry">
            <mxPoint x="934.67" y="783" as="targetPoint" />
            <mxPoint x="369.99" y="780" as="sourcePoint" />
          </mxGeometry>
        </mxCell>
        <mxCell id="jvlNy7uuzLirawUVMV1M-54" value="&lt;font style=&quot;font-size: 16px;&quot;&gt;LS existe&amp;nbsp;&lt;/font&gt;" style="edgeStyle=none;html=1;endArrow=open;endSize=12;dashed=1;verticalAlign=bottom;rounded=0;" parent="1" edge="1">
          <mxGeometry width="160" relative="1" as="geometry">
            <mxPoint x="934.67" y="810" as="sourcePoint" />
            <mxPoint x="373.67" y="810" as="targetPoint" />
          </mxGeometry>
        </mxCell>
        <mxCell id="jvlNy7uuzLirawUVMV1M-56" value="" style="edgeStyle=none;html=1;dashed=1;endArrow=none;align=center;verticalAlign=bottom;exitX=0.5;exitY=1;rounded=0;" parent="1" source="jvlNy7uuzLirawUVMV1M-8" target="jvlNy7uuzLirawUVMV1M-55" edge="1">
          <mxGeometry x="1" relative="1" as="geometry">
            <mxPoint x="950" y="1131.88232421875" as="targetPoint" />
            <mxPoint x="950" y="90" as="sourcePoint" />
          </mxGeometry>
        </mxCell>
        <mxCell id="jvlNy7uuzLirawUVMV1M-55" value="" style="shape=rect;fillColor=#eeeeee;html=1;" parent="1" vertex="1">
          <mxGeometry x="934.6700000000001" y="760" width="30.65" height="70" as="geometry" />
        </mxCell>
        <mxCell id="jvlNy7uuzLirawUVMV1M-57" value="&lt;font style=&quot;font-size: 17px;&quot;&gt;Demmande de siasir&lt;/font&gt;&lt;div&gt;&lt;font style=&quot;font-size: 17px;&quot;&gt;les info de la modification de&amp;nbsp;&lt;/font&gt;&lt;/div&gt;&lt;div&gt;&lt;font style=&quot;font-size: 17px;&quot;&gt;LS&lt;/font&gt;&lt;/div&gt;" style="edgeStyle=none;endArrow=open;verticalAlign=bottom;endSize=12;html=1;rounded=0;exitX=0.002;exitY=0.185;exitDx=0;exitDy=0;exitPerimeter=0;" parent="1" source="jvlNy7uuzLirawUVMV1M-51" edge="1">
          <mxGeometry relative="1" as="geometry">
            <mxPoint x="140" y="824" as="targetPoint" />
            <mxPoint x="330.65" y="824.38" as="sourcePoint" />
          </mxGeometry>
        </mxCell>
        <mxCell id="jvlNy7uuzLirawUVMV1M-59" value="&lt;font style=&quot;font-size: 17px;&quot;&gt;Saisir les info&lt;/font&gt;" style="edgeStyle=none;html=1;endArrow=open;endSize=12;dashed=1;verticalAlign=bottom;rounded=0;" parent="1" edge="1">
          <mxGeometry width="160" relative="1" as="geometry">
            <mxPoint x="150" y="860" as="sourcePoint" />
            <mxPoint x="337" y="860" as="targetPoint" />
          </mxGeometry>
        </mxCell>
        <mxCell id="jvlNy7uuzLirawUVMV1M-60" value="&lt;font style=&quot;font-size: 18px;&quot;&gt;Liste demmande&lt;/font&gt;" style="shape=rect;html=1;whiteSpace=wrap;align=center;" parent="1" vertex="1">
          <mxGeometry x="1171" y="40" width="140" height="50" as="geometry" />
        </mxCell>
        <mxCell id="jvlNy7uuzLirawUVMV1M-61" value="" style="edgeStyle=none;html=1;dashed=1;endArrow=none;align=center;verticalAlign=bottom;exitX=0.5;exitY=1;rounded=0;" parent="1" source="jvlNy7uuzLirawUVMV1M-70" edge="1">
          <mxGeometry x="1" relative="1" as="geometry">
            <mxPoint x="1239" y="1089" as="targetPoint" />
            <mxPoint x="1239.41" y="90" as="sourcePoint" />
          </mxGeometry>
        </mxCell>
        <mxCell id="jvlNy7uuzLirawUVMV1M-62" value="&lt;font style=&quot;font-size: 15px;&quot;&gt;Demmande&lt;/font&gt;" style="shape=rect;html=1;whiteSpace=wrap;align=center;" parent="1" vertex="1">
          <mxGeometry x="470" y="830" width="110" height="50" as="geometry" />
        </mxCell>
        <mxCell id="jvlNy7uuzLirawUVMV1M-63" value="" style="shape=rect;fillColor=#eeeeee;html=1;" parent="1" vertex="1">
          <mxGeometry x="510" y="880" width="20" height="120" as="geometry" />
        </mxCell>
        <mxCell id="jvlNy7uuzLirawUVMV1M-64" value="" style="edgeStyle=none;endArrow=sysMLx;endSize=22;dashed=1;html=1;rounded=0;exitX=0.5;exitY=1;exitDx=0;exitDy=0;" parent="1" source="jvlNy7uuzLirawUVMV1M-63" edge="1">
          <mxGeometry relative="1" as="geometry">
            <mxPoint x="520" y="1060" as="targetPoint" />
            <mxPoint x="631.3246753246754" y="1116.4193548387098" as="sourcePoint" />
          </mxGeometry>
        </mxCell>
        <mxCell id="jvlNy7uuzLirawUVMV1M-65" value="&lt;font style=&quot;font-size: 18px;&quot;&gt;créer&lt;/font&gt;" style="edgeStyle=none;endArrow=open;verticalAlign=bottom;endSize=12;html=1;rounded=0;" parent="1" edge="1">
          <mxGeometry relative="1" as="geometry">
            <mxPoint x="470" y="870" as="targetPoint" />
            <mxPoint x="370.32" y="870" as="sourcePoint" />
          </mxGeometry>
        </mxCell>
        <mxCell id="jvlNy7uuzLirawUVMV1M-68" value="&lt;font style=&quot;font-size: 17px;&quot;&gt;Ajouter information&lt;/font&gt;&lt;div&gt;&lt;font style=&quot;font-size: 17px;&quot;&gt;demmande&lt;/font&gt;&lt;/div&gt;" style="edgeStyle=none;endArrow=open;verticalAlign=bottom;endSize=12;html=1;rounded=0;exitX=1.022;exitY=0.136;exitDx=0;exitDy=0;exitPerimeter=0;" parent="1" edge="1">
          <mxGeometry relative="1" as="geometry">
            <mxPoint x="510" y="930" as="targetPoint" />
            <mxPoint x="370" y="930" as="sourcePoint" />
          </mxGeometry>
        </mxCell>
        <mxCell id="jvlNy7uuzLirawUVMV1M-69" value="&lt;font style=&quot;font-size: 17px;&quot;&gt;valider&lt;/font&gt;" style="edgeStyle=none;endArrow=open;verticalAlign=bottom;endSize=12;html=1;rounded=0;" parent="1" edge="1">
          <mxGeometry relative="1" as="geometry">
            <mxPoint x="510" y="970" as="targetPoint" />
            <mxPoint x="370.3200000000004" y="969.9957996162058" as="sourcePoint" />
          </mxGeometry>
        </mxCell>
        <mxCell id="jvlNy7uuzLirawUVMV1M-71" value="" style="edgeStyle=none;html=1;dashed=1;endArrow=none;align=center;verticalAlign=bottom;exitX=0.5;exitY=1;rounded=0;" parent="1" target="jvlNy7uuzLirawUVMV1M-70" edge="1">
          <mxGeometry x="1" relative="1" as="geometry">
            <mxPoint x="1239" y="1089" as="targetPoint" />
            <mxPoint x="1239.41" y="90" as="sourcePoint" />
          </mxGeometry>
        </mxCell>
        <mxCell id="jvlNy7uuzLirawUVMV1M-70" value="" style="shape=rect;fillColor=#eeeeee;html=1;" parent="1" vertex="1">
          <mxGeometry x="1225" y="970" width="30.65" height="70" as="geometry" />
        </mxCell>
        <mxCell id="jvlNy7uuzLirawUVMV1M-72" value="&lt;font style=&quot;font-size: 17px;&quot;&gt;Ajouter&lt;/font&gt;" style="edgeStyle=none;endArrow=open;verticalAlign=bottom;endSize=12;html=1;rounded=0;exitX=0.927;exitY=0.929;exitDx=0;exitDy=0;exitPerimeter=0;entryX=0;entryY=0.286;entryDx=0;entryDy=0;entryPerimeter=0;" parent="1" source="jvlNy7uuzLirawUVMV1M-63" target="jvlNy7uuzLirawUVMV1M-70" edge="1">
          <mxGeometry relative="1" as="geometry">
            <mxPoint x="990" y="989.3299999999999" as="targetPoint" />
            <mxPoint x="530" y="989.3299999999999" as="sourcePoint" />
          </mxGeometry>
        </mxCell>
        <mxCell id="jvlNy7uuzLirawUVMV1M-73" value="&lt;font style=&quot;font-size: 17px;&quot;&gt;Valider&lt;/font&gt;" style="edgeStyle=none;endArrow=open;verticalAlign=bottom;endSize=12;html=1;rounded=0;exitX=0.182;exitY=0.879;exitDx=0;exitDy=0;exitPerimeter=0;entryX=1.081;entryY=0.797;entryDx=0;entryDy=0;entryPerimeter=0;" parent="1" target="jvlNy7uuzLirawUVMV1M-51" edge="1">
          <mxGeometry relative="1" as="geometry">
            <mxPoint x="372" y="1030" as="targetPoint" />
            <mxPoint x="1225" y="1024" as="sourcePoint" />
          </mxGeometry>
        </mxCell>
        <mxCell id="jvlNy7uuzLirawUVMV1M-74" value="&lt;font style=&quot;font-size: 18px;&quot;&gt;supprimer&lt;/font&gt;" style="edgeStyle=none;endArrow=open;verticalAlign=bottom;endSize=12;html=1;rounded=0;" parent="1" edge="1">
          <mxGeometry relative="1" as="geometry">
            <mxPoint x="510" y="1060" as="targetPoint" />
            <mxPoint x="370.32" y="1060" as="sourcePoint" />
          </mxGeometry>
        </mxCell>
        <mxCell id="jvlNy7uuzLirawUVMV1M-75" value="&lt;font style=&quot;font-size: 18px;&quot;&gt;afficher message&amp;nbsp;&lt;/font&gt;&lt;div&gt;&lt;font style=&quot;font-size: 18px;&quot;&gt;création success&lt;/font&gt;&lt;/div&gt;" style="edgeStyle=none;endArrow=open;verticalAlign=bottom;endSize=12;html=1;rounded=0;entryX=1;entryY=0.75;entryDx=0;entryDy=0;exitX=0.011;exitY=0.934;exitDx=0;exitDy=0;exitPerimeter=0;" parent="1" source="jvlNy7uuzLirawUVMV1M-51" target="jvlNy7uuzLirawUVMV1M-76" edge="1">
          <mxGeometry relative="1" as="geometry">
            <mxPoint x="114.67" y="1090" as="targetPoint" />
            <mxPoint x="330" y="1078" as="sourcePoint" />
          </mxGeometry>
        </mxCell>
        <mxCell id="jvlNy7uuzLirawUVMV1M-76" value="" style="shape=rect;fillColor=#eeeeee;html=1;" parent="1" vertex="1">
          <mxGeometry x="110" y="1040" width="30.65" height="50" as="geometry" />
        </mxCell>
        <mxCell id="jvlNy7uuzLirawUVMV1M-79" value="" style="edgeStyle=none;html=1;dashed=1;endArrow=none;align=center;verticalAlign=bottom;exitX=0.5;exitY=1;rounded=0;" parent="1" source="jvlNy7uuzLirawUVMV1M-12" target="jvlNy7uuzLirawUVMV1M-28" edge="1">
          <mxGeometry x="1" relative="1" as="geometry">
            <mxPoint x="125" y="330" as="targetPoint" />
            <mxPoint x="125" y="270" as="sourcePoint" />
          </mxGeometry>
        </mxCell>
        <mxCell id="jvlNy7uuzLirawUVMV1M-80" value="" style="endArrow=none;dashed=1;html=1;dashPattern=1 3;strokeWidth=2;rounded=0;exitX=0.001;exitY=0.121;exitDx=0;exitDy=0;exitPerimeter=0;entryX=1.001;entryY=0.119;entryDx=0;entryDy=0;entryPerimeter=0;" parent="1" source="jvlNy7uuzLirawUVMV1M-77" target="jvlNy7uuzLirawUVMV1M-77" edge="1">
          <mxGeometry width="50" height="50" relative="1" as="geometry">
            <mxPoint x="710" y="650" as="sourcePoint" />
            <mxPoint x="1370" y="395" as="targetPoint" />
          </mxGeometry>
        </mxCell>
      </root>
    </mxGraphModel>
  </diagram>
</mxfile>
